# xmcd CD database file
# Copyright (C) 1996 Ti Kan
#
# Track frame offsets:
#	150
#	17022
#	54891
#	67095
#	81097
#	111912
#	129810
#	144591
# Disc length: 2394 seconds
#
# Revision: 1
# Processed by: cddbd v1.5.1PL0 Copyright (c) Steve Scherf et al.
# Submitted via: CDCOPY 4.900
#
DISCID=64095808
DTITLE=And you will know us by the trail of dead - ...And you will know us b
DTITLE=y the trail of dead
DYEAR=1900
DGENRE=
TTITLE0=Richter scale madness
TTITLE1=Novena withouth faith
TTITLE2=Fake fare eyes
TTITLE3=Help of what
TTITLE4=Gargoyle waiting
TTITLE5=Prince with a thousand enemies
TTITLE6=Ounce of prevention
TTITLE7=When we begin to steal
EXTD=
EXTT0=
EXTT1=
EXTT2=
EXTT3=
EXTT4=
EXTT5=
EXTT6=
EXTT7=
PLAYORDER=
